<?xml version="1.0" encoding="UTF-8"?>
<svg id="Layer_1" data-name="Layer 1" xmlns="http://www.w3.org/2000/svg" viewBox="0 0 414.28 543.83">
  <defs>
    <style>
      .cls-1 {
        stroke-linejoin: round;
      }

      .cls-1, .cls-2 {
        fill: none;
        stroke: #3a82a5;
        stroke-linecap: round;
        stroke-width: 28px;
      }

      .cls-2 {
        stroke-miterlimit: 10;
      }
    </style>
  </defs>
  <path class="cls-2" d="m340.72,105.28c-53-49-142.11-61.85-206-27-55,30-71.35,98.88-40,139,46.5,59.5,175.24,43.5,244,104,25,22,35.5,82.5-7,121-51.84,46.96-187.01,64.53-272.5-24.5"/>
  <path class="cls-2" d="m77.22,68.78c-29,29-51,77-34,132"/>
  <path class="cls-2" d="m360.13,470.73c29.06-28.94,51.17-76.89,34.29-131.92"/>
  <path class="cls-2" d="m283.22,413.78c-82,55-154.83,7.35-208-34-36-28-84,21-49.1,62.6"/>
  <path class="cls-2" d="m142.22,130.78c58-47,128-28,178.78,8.36,37.08,26.55,84-21,49.1-62.6"/>
  <path class="cls-2" d="m101.22,327.78c33.29,21.51,114.58,24.87,144,41"/>
  <path class="cls-2" d="m348.52,227.27c-33.47-23.11-116.87-29.33-146.54-46.81"/>
  <path class="cls-2" d="m63.22,480.78c77,65,205,55.57,259,27.9"/>
  <path class="cls-1" d="m341.22,49.78C276.22,2.78,176.22,6.78,122.22,34.78"/>
  <path class="cls-2" d="m80.22,258c46,59.78,157,43.78,213,83.78"/>
  <path class="cls-2" d="m354.22,286.78c-46-59.78-157-43.78-213-83.78"/>
</svg>